<svg width="19" height="29" viewBox="0 0 19 29" fill="none" xmlns="http://www.w3.org/2000/svg">
<path d="M10 5.33333C11.4667 5.33333 12.6667 4.13333 12.6667 2.66667C12.6667 1.2 11.4667 0 10 0C8.53333 0 7.33333 1.2 7.33333 2.66667C7.33333 4.13333 8.53333 5.33333 10 5.33333ZM18.6667 14.6667V28.6667H17.3333V14.6667C17.3333 14.2933 17.04 14 16.6667 14C16.2933 14 16 14.2933 16 14.6667V16H14.6667V15.08C12.72 14.5733 11.0667 13.36 9.98667 11.72C9.57333 12.88 9.33333 14.0933 9.33333 15.3333C9.33333 15.64 9.36 15.9467 9.37333 16.2533L12 20V28.6667H9.33333V22L6.96 18.6133L6.66667 23.3333L2.66667 28.6667L0.533333 27.0667L4 22.44V15.3333C4 13.8 4.24 12.28 4.66667 10.8133L2.66667 11.9467V16.6667H0V10.4L7.2 6.30667V6.32C7.98667 5.90667 8.96 5.88 9.78667 6.36C10.2667 6.64 10.6267 7.04 10.8533 7.49333L11.9067 9.72C12.7733 11.4667 14.5867 12.6667 16.6667 12.6667C17.7733 12.6667 18.6667 13.56 18.6667 14.6667Z" fill="white"/>
</svg>
